<?xml version="1.0" ?><!DOCTYPE svg  PUBLIC '-//W3C//DTD SVG 1.0//EN'  'http://www.w3.org/TR/2001/REC-SVG-20010904/DTD/svg10.dtd'><svg enable-background="new 0 0 100 100" height="100px" id="Layer_1" version="1.0" viewBox="0 0 100 100" width="100px" xml:space="preserve" xmlns="http://www.w3.org/2000/svg" xmlns:xlink="http://www.w3.org/1999/xlink"><path d="  M69.999,10H30c-11,0-20,9.001-20,20v40c0,10.999,9,20,20,20h39.999C80.999,90,90,80.999,90,70V30C90,19.001,80.999,10,69.999,10z   M82.5,70c0,6.893-5.607,12.5-12.501,12.5H30c-6.892,0-12.5-5.607-12.5-12.5V30c0-6.894,5.607-12.5,12.5-12.5h39.999  C76.893,17.5,82.5,23.107,82.5,30V70z" fill="none" stroke="#000000" stroke-linecap="round" stroke-linejoin="round" stroke-miterlimit="10" stroke-width="2"/><path d="  M50,32.5c-9.665,0-17.5,7.835-17.5,17.5S40.335,67.499,50,67.499S67.5,59.665,67.5,50S59.664,32.5,50,32.5z M50,59.999  c-5.522,0-10-4.477-10-9.999c0-5.524,4.478-10.001,10-10.001c5.522,0,10,4.477,10,10.001C60,55.522,55.521,59.999,50,59.999z" fill="none" stroke="#000000" stroke-linecap="round" stroke-linejoin="round" stroke-miterlimit="10" stroke-width="2"/><circle cx="69.999" cy="30" fill="none" r="3.75" stroke="#000000" stroke-linecap="round" stroke-linejoin="round" stroke-miterlimit="10" stroke-width="2"/></svg>